Run_40002
nRows=4
nColumns=164

# SIMM Motion File Header:
name Run_40002
datacolumns 164
datarows 4
otherdata 1
range 1.39000000 1.42000000
endheader
time	pelvis_tilt	pelvis_list	pelvis_rotation	pelvis_tx	pelvis_ty	pelvis_tz	hip_flexion_r	hip_adduction_r	hip_rotation_r	knee_angle_r	ankle_angle_r	hip_flexion_l	hip_adduction_l	hip_rotation_l	knee_angle_l	ankle_angle_l	lumbar_extension	lumbar_bending	lumbar_rotation	arm_flex_r	arm_add_r	arm_rot_r	elbow_flex_r	pro_sup_r	arm_flex_l	arm_add_l	arm_rot_l	elbow_flex_l	pro_sup_l	subtalar_angle_r	mtp_angle_r	subtalar_angle_l	mtp_angle_l	wrist_flex_r	wrist_dev_r	wrist_flex_l	wrist_dev_l	LASI_tx	LASI_ty	LASI_tz	RASI_tx	RASI_ty	RASI_tz	LPSI_tx	LPSI_ty	LPSI_tz	RPSI_tx	RPSI_ty	RPSI_tz	RTH1_tx	RTH1_ty	RTH1_tz	RTH3_tx	RTH3_ty	RTH3_tz	LTH1_tx	LTH1_ty	LTH1_tz	LTH2_tx	LTH2_ty	LTH2_tz	LTH3_tx	LTH3_ty	LTH3_tz	RTB1_tx	RTB1_ty	RTB1_tz	RTB2_tx	RTB2_ty	RTB2_tz	LTB1_tx	LTB1_ty	LTB1_tz	LTB2_tx	LTB2_ty	LTB2_tz	RCAL_tx	RCAL_ty	RCAL_tz	RTOE_tx	RTOE_ty	RTOE_tz	LCAL_tx	LCAL_ty	LCAL_tz	LTOE_tx	LTOE_ty	LTOE_tz	LACR_tx	LACR_ty	LACR_tz	RACR_tx	RACR_ty	RACR_tz	CLAV_tx	CLAV_ty	CLAV_tz	C7_tx	C7_ty	C7_tz	RUA1_tx	RUA1_ty	RUA1_tz	RUA2_tx	RUA2_ty	RUA2_tz	RUA3_tx	RUA3_ty	RUA3_tz	RLEL_tx	RLEL_ty	RLEL_tz	RMEL_tx	RMEL_ty	RMEL_tz	LUA1_tx	LUA1_ty	LUA1_tz	LUA2_tx	LUA2_ty	LUA2_tz	LUA3_tx	LUA3_ty	LUA3_tz	LLEL_tx	LLEL_ty	LLEL_tz	LMEL_tx	LMEL_ty	LMEL_tz	RFAsuperior_tx	RFAsuperior_ty	RFAsuperior_tz	RFAradius_tx	RFAradius_ty	RFAradius_tz	RFAulna_tx	RFAulna_ty	RFAulna_tz	LFAsuperior_tx	LFAsuperior_ty	LFAsuperior_tz	LFAradius_tx	LFAradius_ty	LFAradius_tz	LFAulna_tx	LFAulna_ty	LFAulna_tz	RTH2_tx	RTH2_ty	RTH2_tz	RTB3_tx	RTB3_ty	RTB3_tz	RMT5_tx	RMT5_ty	RMT5_tz	LMT5_tx	LMT5_ty	LMT5_tz	LTB3_tx	LTB3_ty	LTB3_tz
      1.39000000	     -6.48561587	     -5.09898486	      5.05647561	      0.78068115	      1.03566833	     -0.33029073	     44.80615724	      2.71273179	     -9.33106922	    -70.25222053	     -3.46727121	    -13.96435854	     -4.42525644	     -8.61380742	    -21.45765418	    -24.52515284	     -3.96093142	      5.25123490	    -21.29097373	    -32.51958996	    -27.47120861	      7.84408239	     94.21939843	     73.68520099	     -4.56138006	    -31.41922546	     12.89065180	    128.83492907	     83.37659928	      0.00000000	      0.00000000	      0.00000000	      0.00000000	      0.00000000	      0.00000000	      0.00000000	      0.00000000	      0.77548072	      1.01330985	     -0.45448400	      0.78737443	      1.04886980	     -0.20913570	      0.61142630	      1.11650937	     -0.36683935	      0.61001495	      1.11639559	     -0.28170294	      0.77523285	      0.93709265	     -0.14094803	      0.89057339	      0.72960925	     -0.16829052	      0.66713729	      0.91179319	     -0.50791239	      0.68141231	      0.78021640	     -0.48894503	      0.54653153	      0.68935334	     -0.46947139	      0.94381722	      0.50406853	     -0.23044646	      0.85052864	      0.43977567	     -0.18254377	      0.48606925	      0.46063467	     -0.40912032	      0.38407518	      0.43854758	     -0.46124557	      0.65418987	      0.27682108	     -0.26751578	      0.85933638	      0.16682510	     -0.25566889	      0.17961309	      0.28980933	     -0.34734397	      0.29607828	      0.09117854	     -0.36677438	      0.80899082	      1.54257273	     -0.48569842	      0.73176122	      1.55419726	     -0.15765513	      0.82951855	      1.50666875	     -0.28288307	      0.71236315	      1.58463371	     -0.34852630	      0.63115319	      1.48849804	     -0.08834519	      0.54751281	      1.44525355	     -0.13068189	      0.54914756	      1.41116208	     -0.05666254	      0.49259177	      1.33079170	     -0.03011627	      0.46692681	      1.31996560	     -0.11010138	      0.79672093	      1.44131169	     -0.58797694	      0.73219168	      1.35900723	     -0.59924466	      0.79402530	      1.33262064	     -0.64093748	      0.81233379	      1.24968148	     -0.67492961	      0.75550144	      1.20493982	     -0.63702606	      0.53191674	      1.25890104	     -0.02836747	      0.70011347	      1.15654321	     -0.08590343	      0.64640270	      1.10992707	     -0.07553413	      0.89533198	      1.24870022	     -0.58131413	      0.93312412	      1.31862212	     -0.44540339	      0.95308470	      1.25265776	     -0.44975126	      0.89494699	      0.85013204	     -0.16018055	      0.82965067	      0.33866209	     -0.24091948	      0.81488921	      0.14965463	     -0.17502004	      0.23093077	      0.09194003	     -0.43100050	      0.35256143	      0.30482755	     -0.39412094
      1.40000000	     -7.50764461	     -5.30398869	      4.88490822	      0.78242459	      1.03845466	     -0.33066516	     44.94204064	      2.94819002	     -9.08844923	    -62.91011342	     -4.86194582	    -13.59096385	     -4.99922601	     -9.34298839	    -23.89033373	    -25.01226337	     -2.59316480	      5.71303202	    -21.48715487	    -34.08348496	    -28.25070290	      6.84268566	     95.87105238	     73.14998740	     -4.67927351	    -31.26849488	     13.17866775	    130.12068105	     83.94613385	      0.00000000	      0.00000000	      0.00000000	      0.00000000	      0.00000000	      0.00000000	      0.00000000	      0.00000000	      0.77700375	      1.01722649	     -0.45382866	      0.78837515	      1.05209615	     -0.21159532	      0.61421475	      1.12229108	     -0.36861206	      0.61326072	      1.12208705	     -0.28365624	      0.77462832	      0.93982931	     -0.14114980	      0.88712968	      0.73076425	     -0.16978510	      0.66659235	      0.91718619	     -0.50864615	      0.67965808	      0.78501166	     -0.49020708	      0.54412072	      0.69553824	     -0.47099133	      0.95481103	      0.50323838	     -0.22946781	      0.86906997	      0.42927723	     -0.18130882	      0.47604280	      0.46883911	     -0.41027442	      0.37369764	      0.45121091	     -0.46319621	      0.69155094	      0.24704822	     -0.26642066	      0.90591805	      0.15622342	     -0.25649989	      0.16225806	      0.31502951	     -0.34843321	      0.26615855	      0.10846313	     -0.37078193	      0.81067057	      1.54841647	     -0.48220545	      0.73218605	      1.55854281	     -0.15650464	      0.83040008	      1.51140882	     -0.28064544	      0.71309627	      1.58897176	     -0.34658720	      0.63040875	      1.49549303	     -0.08737118	      0.54718669	      1.45318503	     -0.13025105	      0.54719525	      1.41958520	     -0.05571750	      0.48902436	      1.33969118	     -0.02929816	      0.46405028	      1.32895820	     -0.10956268	      0.80032323	      1.44839894	     -0.58531327	      0.73545090	      1.36653808	     -0.59834904	      0.79747299	      1.33980950	     -0.63960028	      0.81614840	      1.25653434	     -0.67391963	      0.75965120	      1.21143067	     -0.63651638	      0.52834342	      1.26809969	     -0.02703160	      0.69772778	      1.16635325	     -0.08332083	      0.64428050	      1.11946669	     -0.07386643	      0.89757544	      1.25814782	     -0.57946010	      0.93216829	      1.32950989	     -0.44308779	      0.95368972	      1.26402912	     -0.44638172	      0.89313998	      0.85055467	     -0.15958433	      0.85932059	      0.32632004	     -0.23997287	      0.86332914	      0.13377865	     -0.17580787	      0.19991696	      0.11398942	     -0.43341492	      0.33454502	      0.31979094	     -0.39561326
      1.41000000	     -8.36247113	     -5.17538680	      4.62217969	      0.78379246	      1.04046010	     -0.33041463	     44.55414522	      3.10415317	     -8.53304146	    -55.13204108	     -6.54263452	    -13.06527033	     -5.15253999	     -9.46861904	    -27.24950683	    -24.79979296	     -1.51104141	      5.78240861	    -21.46338184	    -35.40822950	    -28.75283363	      5.90122517	     97.28121926	     72.76392729	     -4.77800580	    -31.33007492	     13.71500820	    131.14716775	     83.56247863	      0.00000000	      0.00000000	      0.00000000	      0.00000000	      0.00000000	      0.00000000	      0.00000000	      0.00000000	      0.77861378	      1.02090456	     -0.45346832	      0.78876227	      1.05419225	     -0.21278684	      0.61671675	      1.12698014	     -0.36967594	      0.61552377	      1.12669588	     -0.28492136	      0.77254457	      0.93968142	     -0.14057468	      0.88213632	      0.72923445	     -0.17186361	      0.66721124	      0.92191552	     -0.50874452	      0.68036659	      0.78890267	     -0.49066008	      0.54477515	      0.69976716	     -0.47295813	      0.96354704	      0.50117490	     -0.22856883	      0.88694757	      0.41813717	     -0.17998224	      0.46784676	      0.47588442	     -0.41155930	      0.36484058	      0.46387181	     -0.46472441	      0.73013619	      0.21890347	     -0.26540673	      0.95180961	      0.14778317	     -0.25782175	      0.14480729	      0.34201293	     -0.34901197	      0.23567325	      0.12944146	     -0.37166997	      0.81192516	      1.55321401	     -0.47901853	      0.73292707	      1.56180990	     -0.15482777	      0.83143454	      1.51524322	     -0.27848330	      0.71378456	      1.59220847	     -0.34443196	      0.63029685	      1.50107184	     -0.08570840	      0.54723325	      1.45879086	     -0.12955246	      0.54577152	      1.42612146	     -0.05462875	      0.48633013	      1.34669187	     -0.02822845	      0.46202889	      1.33585782	     -0.10867364	      0.80339212	      1.45448300	     -0.58304960	      0.73840741	      1.37286545	     -0.59752478	      0.80028601	      1.34585828	     -0.63850492	      0.81900955	      1.26243096	     -0.67323833	      0.76264552	      1.21713983	     -0.63627015	      0.52582482	      1.27543104	     -0.02556658	      0.69626561	      1.17422848	     -0.08082631	      0.64308326	      1.12720888	     -0.07216015	      0.89922493	      1.26549791	     -0.57812840	      0.93128166	      1.33751192	     -0.44105691	      0.95327259	      1.27248949	     -0.44229321	      0.89083524	      0.84920666	     -0.15841671	      0.88839624	      0.31468677	     -0.23918290	      0.91175022	      0.11987668	     -0.17682276	      0.17062653	      0.13958049	     -0.43495538	      0.31724590	      0.33574204	     -0.39624493
      1.42000000	     -8.85990794	     -4.69032349	      4.33746038	      0.78504578	      1.04202060	     -0.32946718	     43.44983758	      3.15514815	     -7.62226359	    -47.04164664	     -8.33334708	    -12.70244842	     -4.84710046	     -9.00513816	    -31.11944720	    -24.74568094	     -0.89159566	      5.41472939	    -21.24989657	    -36.42284849	    -28.92880068	      5.06072967	     98.38683744	     72.40810070	     -4.86646941	    -31.62579410	     14.35336727	    131.76291970	     82.71707012	      0.00000000	      0.00000000	      0.00000000	      0.00000000	      0.00000000	      0.00000000	      0.00000000	      0.00000000	      0.78029170	      1.02425517	     -0.45312774	      0.78874695	      1.05548754	     -0.21229515	      0.61903781	      1.13049569	     -0.36987443	      0.61657165	      1.12992791	     -0.28488233	      0.77013150	      0.93741066	     -0.13975887	      0.87638295	      0.72537966	     -0.17365938	      0.66928943	      0.92564176	     -0.50839308	      0.68295098	      0.79171894	     -0.49012912	      0.54749830	      0.70246447	     -0.47495930	      0.96958680	      0.49786176	     -0.22799015	      0.90379750	      0.40668334	     -0.17889517	      0.46144121	      0.48199422	     -0.41305870	      0.35778781	      0.47647403	     -0.46601246	      0.76901907	      0.19309893	     -0.26471127	      0.99596029	      0.14227111	     -0.25908866	      0.12932133	      0.37110772	     -0.35042799	      0.20575086	      0.15300533	     -0.36928237	      0.81270428	      1.55697542	     -0.47618188	      0.73393298	      1.56408246	     -0.15273275	      0.83243521	      1.51831176	     -0.27637103	      0.71449305	      1.59445939	     -0.34203099	      0.63067439	      1.50494284	     -0.08366826	      0.54757792	      1.46216009	     -0.12860547	      0.54490652	      1.43074900	     -0.05343193	      0.48471943	      1.35176029	     -0.02688520	      0.46095299	      1.34052677	     -0.10746525	      0.80568483	      1.45931904	     -0.58108571	      0.74065652	      1.37781324	     -0.59670275	      0.80228606	      1.35078265	     -0.63756376	      0.82089557	      1.26737234	     -0.67275446	      0.76445949	      1.22204311	     -0.63621174	      0.52446880	      1.28079760	     -0.02393422	      0.69591826	      1.18015915	     -0.07816970	      0.64283574	      1.13298713	     -0.07031170	      0.90029217	      1.27059660	     -0.57711635	      0.93073526	      1.34228836	     -0.43916868	      0.95243848	      1.27752489	     -0.43847304	      0.88883667	      0.84651701	     -0.15679331	      0.91600725	      0.30410506	     -0.23870706	      0.95924563	      0.10882304	     -0.17832874	      0.14311737	      0.16709162	     -0.43453424	      0.30143213	      0.35264244	     -0.39643705
